<svg xmlns="http://www.w3.org/2000/svg" width="32" height="32" viewBox="0 0 32 32">
    <g fill="#FFF" fill-rule="evenodd">
        <path d="M16 6c-2.716 0-3.056.012-4.123.06-1.064.048-1.791.218-2.427.465a4.882 4.882 0 0 0-1.772 1.154 4.911 4.911 0 0 0-1.153 1.77c-.247.637-.416 1.363-.465 2.428C6.012 12.943 6 13.284 6 16s.012 3.057.06 4.123c.049 1.065.218 1.79.465 2.428a4.911 4.911 0 0 0 1.153 1.77 4.882 4.882 0 0 0 1.772 1.154c.636.248 1.363.417 2.427.464 1.067.049 1.407.06 4.123.06s3.056-.011 4.123-.06c1.064-.047 1.791-.216 2.427-.464a4.882 4.882 0 0 0 1.772-1.154 4.911 4.911 0 0 0 1.153-1.77c.247-.637.416-1.363.465-2.428.048-1.066.06-1.407.06-4.123s-.012-3.057-.06-4.123c-.049-1.065-.218-1.791-.465-2.428a4.911 4.911 0 0 0-1.153-1.77 4.882 4.882 0 0 0-1.772-1.154c-.636-.247-1.363-.417-2.427-.464C19.056 6.01 18.716 6 16 6m0 1.802c2.67 0 2.986.01 4.041.058.975.044 1.504.207 1.857.344.466.182.8.399 1.149.748.35.35.567.684.748 1.15.138.353.3.882.345 1.857.048 1.055.058 1.37.058 4.04s-.01 2.987-.058 4.042c-.045.975-.207 1.504-.345 1.856-.181.467-.398.8-.748 1.15a3.113 3.113 0 0 1-1.149.749c-.353.137-.882.3-1.857.344-1.055.048-1.371.058-4.041.058-2.67 0-2.986-.01-4.041-.058-.975-.044-1.504-.207-1.857-.344a3.113 3.113 0 0 1-1.149-.748 3.104 3.104 0 0 1-.748-1.151c-.138-.352-.3-.881-.345-1.856-.048-1.055-.058-1.371-.058-4.041 0-2.67.01-2.986.058-4.041.045-.975.207-1.504.345-1.856.181-.467.398-.8.748-1.151a3.113 3.113 0 0 1 1.149-.748c.353-.137.882-.3 1.857-.344 1.055-.048 1.371-.058 4.041-.058"/>
        <path d="M16 19.333a3.333 3.333 0 1 1 0-6.665 3.333 3.333 0 0 1 0 6.665m0-8.468a5.135 5.135 0 1 0 0 10.27 5.135 5.135 0 0 0 0-10.27M22.538 10.662a1.2 1.2 0 1 1-2.4 0 1.2 1.2 0 0 1 2.4 0"/>
    </g>
</svg>
